<svg xmlns="http://www.w3.org/2000/svg" viewBox="0 0 512 512" style="background: linear-gradient(135deg, #667eea 0%, #764ba2 100%);">
  <!-- 마이크 아이콘 -->
  <g transform="translate(256,256)">
    <!-- 마이크 바디 -->
    <rect x="-40" y="-100" width="80" height="120" rx="40" fill="#ffffff" opacity="0.9"/>
    <!-- 마이크 스탠드 -->
    <rect x="-3" y="20" width="6" height="60" fill="#ffffff" opacity="0.9"/>
    <!-- 마이크 베이스 -->
    <rect x="-30" y="80" width="60" height="8" rx="4" fill="#ffffff" opacity="0.9"/>
    <!-- 소리 웨이브 -->
    <path d="M-80,-40 Q-100,-40 -100,-20 Q-100,0 -80,0" stroke="#ffffff" stroke-width="8" fill="none" opacity="0.7"/>
    <path d="M80,-40 Q100,-40 100,-20 Q100,0 80,0" stroke="#ffffff" stroke-width="8" fill="none" opacity="0.7"/>
    <path d="M-60,-60 Q-70,-60 -70,-40 Q-70,-20 -60,-20" stroke="#ffffff" stroke-width="6" fill="none" opacity="0.6"/>
    <path d="M60,-60 Q70,-60 70,-40 Q70,-20 60,-20" stroke="#ffffff" stroke-width="6" fill="none" opacity="0.6"/>
  </g>
  <!-- 자동차 아이콘 (작게) -->
  <g transform="translate(400,400) scale(0.3)">
    <rect x="-60" y="-20" width="120" height="40" rx="20" fill="#ffffff" opacity="0.8"/>
    <circle cx="-30" cy="20" r="15" fill="#ffffff" opacity="0.8"/>
    <circle cx="30" cy="20" r="15" fill="#ffffff" opacity="0.8"/>
    <rect x="-40" y="-40" width="30" height="20" rx="5" fill="#ffffff" opacity="0.8"/>
    <rect x="10" y="-40" width="30" height="20" rx="5" fill="#ffffff" opacity="0.8"/>
  </g>
</svg>
